<svg xmlns:xlink="http://www.w3.org/1999/xlink" width="227.768" xmlns="http://www.w3.org/2000/svg" height="227.768" id="screenshot-ec442d00-8b12-8041-8002-a89678124a81" viewBox="0 0 227.768 227.768" style="-webkit-print-color-adjust: exact;" fill="none" version="1.1"><g id="shape-ec442d00-8b12-8041-8002-a89678124a81" rx="0" ry="0"><g id="shape-ec442d00-8b12-8041-8002-a896417f763a" rx="0" ry="0"><g id="shape-ec442d00-8b12-8041-8002-a8944b05c8aa"><defs><linearGradient id="fill-color-gradient_rumext-id-3_0" x1="0.6840961414246166" y1="-0.02131598640983269" x2="0.12665902526062434" y2="0.8010451486144559" gradientTransform=""><stop offset="0" stop-color="#ffdd6e" stop-opacity="1"/><stop offset="1" stop-color="#f18269" stop-opacity="1"/></linearGradient><pattern patternUnits="userSpaceOnUse" x="33.383836810299044" y="33.38383681029859" height="161.00000000000034" width="161.00000000000045" data-loading="false" id="fill-0-rumext-id-3"><g><rect width="161.00000000000045" height="161.00000000000034" style="fill: url(&quot;#fill-color-gradient_rumext-id-3_0&quot;);"/></g></pattern></defs><g class="fills" id="fills-ec442d00-8b12-8041-8002-a8944b05c8aa"><path rx="0" ry="0" d="M88.459,25.487C102.513,11.442,125.326,11.450,139.370,25.504L202.281,88.459C216.326,102.513,216.318,125.326,202.263,139.370L139.309,202.281C125.255,216.326,102.442,216.318,88.397,202.263L25.487,139.309C11.442,125.255,11.450,102.442,25.504,88.397L88.459,25.487Z" fill="url(#fill-0-rumext-id-3)"/></g></g><g id="shape-ec442d00-8b12-8041-8002-a8963256fca3"><g class="fills" id="fills-ec442d00-8b12-8041-8002-a8963256fca3"><path rx="0" ry="0" d="M143.843,113.829L174.750,144.659L132.681,186.565C122.123,197.082,104.987,197.076,94.437,186.552L39.949,132.198C29.398,121.674,29.404,104.592,39.962,94.075L62.902,71.224C73.459,60.707,90.596,60.713,101.146,71.237L113.595,83.655L143.843,113.829ZL143.843,113.829ZL147.792,109.896L117.543,79.722L127.368,69.935C137.925,59.418,155.062,59.424,165.612,69.948L188.536,92.816C199.086,103.340,199.080,120.422,188.523,130.939L137.900,181.367L76.744,120.363L113.595,83.655M146.432,75.045C142.325,75.045,138.990,78.369,138.990,82.464C138.990,86.558,142.325,89.883,146.432,89.883C150.540,89.883,153.874,86.558,153.874,82.464C153.874,78.369,150.540,75.045,146.432,75.045Z" style="fill: rgb(255, 255, 255); fill-opacity: 1;"/></g></g></g></g></svg>